<svg width="40" height="40" viewBox="0 0 40 40" fill="none" xmlns="http://www.w3.org/2000/svg">
<g clip-path="url(#clip0_12_233)">
<path d="M40 20C40 8.9543 31.0457 0 20 0C8.9543 0 0 8.9543 0 20C0 31.0457 8.9543 40 20 40C31.0457 40 40 31.0457 40 20Z" fill="url(#paint0_linear_12_233)"/>
<path d="M21.3991 22.0616H9.06483C8.19956 22.0616 7.5 22.7611 7.5 23.6263C7.5 24.4916 8.19956 25.1912 9.06483 25.1912H23.2769C23.2769 25.1912 24.0132 24.4548 23.2217 23.2582C22.4117 22.0616 21.3991 22.0616 21.3991 22.0616Z" fill="white"/>
<path d="M20.7732 8.89882L13.115 22.1536C12.6915 22.9084 12.9308 23.8657 13.6856 24.2891C14.4404 24.7125 15.3977 24.4732 15.8211 23.7184L23.4795 10.4636C23.9029 9.70882 23.6635 8.75149 22.9087 8.32811C22.154 7.88629 21.1966 8.14402 20.7732 8.89882ZM30.1436 27.8422L22.2828 14.2007C22.2828 14.2007 21.1415 15.0844 21.1415 16.8333C21.1415 18.5822 21.8594 19.7604 21.8594 19.7604L27.4375 29.4253C27.8609 30.1802 28.8181 30.4378 29.573 29.996C30.3093 29.5542 30.567 28.5969 30.1436 27.8422Z" fill="white"/>
<path d="M30.9351 22.0616H26.5721C25.7069 22.0616 25.0073 22.7611 25.0073 23.6263C25.0073 24.4916 25.7069 25.1912 26.5721 25.1912H30.9351C31.8004 25.1912 32.5 24.4916 32.5 23.6263C32.5 22.7795 31.8004 22.0616 30.9351 22.0616ZM20.8652 11.7707L19.2084 8.88041C18.785 8.14404 17.8092 7.88631 17.0729 8.30972C16.3365 8.73316 16.0788 9.70883 16.5022 10.4452L18.159 13.3355C18.5825 14.0718 19.5581 14.3296 20.2945 13.9062C21.0309 13.4827 21.2886 12.5255 20.8652 11.7707ZM9.83797 27.8237L10.832 26.1117C10.832 26.1117 11.0714 25.633 12.0103 25.633C13.0044 25.633 13.9616 26.4615 14.0353 26.7744L12.5441 29.3886C12.1207 30.1433 11.1635 30.4011 10.4086 29.9592C9.65388 29.5358 9.41455 28.5786 9.83797 27.8237Z" fill="white"/>
</g>
<defs>
<linearGradient id="paint0_linear_12_233" x1="19.9967" y1="39.9925" x2="19.9967" y2="0" gradientUnits="userSpaceOnUse">
<stop stop-color="#4780E8"/>
<stop offset="1" stop-color="#11C8F6"/>
</linearGradient>
<clipPath id="clip0_12_233">
<rect width="40" height="40" fill="white"/>
</clipPath>
</defs>
</svg>
