<svg width="48" height="48" viewBox="0 0 48 48" fill="none" xmlns="http://www.w3.org/2000/svg">
<g clip-path="url(#clip0_21_522)">
<path d="M9.91981 38.3184H42.6159C42.7161 38.3184 42.813 38.3042 42.9062 38.2819C42.9137 38.2819 42.9198 38.2831 42.9273 38.2831C43.6252 38.2831 44.1923 37.7167 44.1923 37.0182V1.265C44.1924 0.566717 43.6252 0 42.9273 0H42.6184H11.943H9.92159C6.55452 0 3.81571 2.73943 3.81571 6.10556C3.81571 6.15071 3.8246 6.19355 3.82899 6.23713C3.8246 9.3466 3.78604 37.9187 3.8246 41.6749C3.82219 41.7483 3.81321 41.82 3.81321 41.8942C3.81321 45.131 6.3476 47.7808 9.53545 47.981C9.59941 47.9908 9.66211 48.0001 9.72847 48.0001H42.9271C43.6251 48.0001 44.1922 47.4337 44.1922 46.7351V41.9734C44.1922 41.2754 43.625 40.7084 42.9271 40.7084C42.2293 40.7084 41.6621 41.2755 41.6621 41.9734V45.4702H9.91981C7.99749 45.4702 6.42828 43.9439 6.35116 42.0407C6.35304 42.0068 6.3592 41.9747 6.35858 41.9401C6.35732 41.8845 6.35544 41.7981 6.35419 41.6831C6.46475 39.81 8.01943 38.3184 9.91981 38.3184ZM10.7824 6.10556C10.7824 5.40727 11.3491 4.84056 12.0474 4.84056C12.7457 4.84056 13.3124 5.40727 13.3124 6.10556V31.8012C13.3124 32.4991 12.7457 33.0662 12.0474 33.0662C11.3491 33.0662 10.7824 32.499 10.7824 31.8012V6.10556Z" fill="url(#paint0_linear_21_522)"/>
</g>
<defs>
<linearGradient id="paint0_linear_21_522" x1="23.9999" y1="0" x2="23.9999" y2="48.0001" gradientUnits="userSpaceOnUse">
<stop stop-color="#0A846C"/>
<stop offset="1" stop-color="#04FF9F"/>
</linearGradient>
<clipPath id="clip0_21_522">
<rect width="48" height="48" fill="white"/>
</clipPath>
</defs>
</svg>
