<svg width="48" height="48" viewBox="0 0 48 48" fill="none" xmlns="http://www.w3.org/2000/svg">
<path fill-rule="evenodd" clip-rule="evenodd" d="M28.8142 37.9427V34.3948H28.4335C28.1747 34.3948 27.9649 34.185 27.9649 33.9262V29.8112C27.9649 29.5524 28.1747 29.3426 28.4335 29.3426H37.8056C38.0644 29.3426 38.2742 29.5524 38.2742 29.8112V33.9262C38.2742 34.185 38.0644 34.3948 37.8056 34.3948H37.4249V37.9427H37.8056C37.9299 37.9427 38.0491 37.9921 38.137 38.0799C38.2248 38.1678 38.2742 38.287 38.2742 38.4113V40.4071C38.2742 40.5314 38.2248 40.6506 38.137 40.7385C38.0491 40.8264 37.9299 40.8757 37.8056 40.8757H37.4249V44.0487C37.4249 44.566 37.005 44.9859 36.4877 44.9859C35.9705 44.9859 35.5505 44.566 35.5505 44.0487V40.8757H30.6886V44.0487C30.6886 44.566 30.2687 44.9859 29.7514 44.9859C29.2342 44.9859 28.8142 44.566 28.8142 44.0487V40.8757H28.4335C28.3093 40.8757 28.1901 40.8264 28.1022 40.7385C28.0143 40.6506 27.9649 40.5314 27.9649 40.4071V38.4113C27.9649 38.287 28.0143 38.1678 28.1022 38.0799C28.1901 37.9921 28.3093 37.9427 28.4335 37.9427H28.8142ZM35.5505 37.9427V34.3948H30.6886V37.9427H35.5505ZM10.56 37.9427V34.3948H10.1793C9.9205 34.3948 9.71069 34.185 9.71069 33.9262V29.8112C9.71069 29.5524 9.9205 29.3426 10.1793 29.3426H19.5514C19.8102 29.3426 20.02 29.5524 20.02 29.8112V33.9262C20.02 34.185 19.8102 34.3948 19.5514 34.3948H19.1707V37.9427H19.5514C19.6757 37.9427 19.7948 37.9921 19.8827 38.0799C19.9706 38.1678 20.02 38.287 20.02 38.4113V40.4071C20.02 40.5314 19.9706 40.6506 19.8827 40.7385C19.7948 40.8264 19.6757 40.8757 19.5514 40.8757H19.1707V44.0487C19.1707 44.566 18.7507 44.9859 18.2335 44.9859C17.7162 44.9859 17.2963 44.566 17.2963 44.0487V40.8757H12.4344V44.0487C12.4344 44.566 12.0144 44.9859 11.4972 44.9859C10.9799 44.9859 10.56 44.566 10.56 44.0487V40.8757H10.1793C10.055 40.8757 9.93582 40.8264 9.84794 40.7385C9.76006 40.6506 9.71069 40.5314 9.71069 40.4071V38.4113C9.71069 38.287 9.76006 38.1678 9.84794 38.0799C9.93582 37.9921 10.055 37.9427 10.1793 37.9427H10.56ZM17.2963 37.9427V34.3948H12.4344V37.9427H17.2963ZM4.4772 33.2969H4.37643C4.34683 33.2969 4.31786 33.2941 4.28977 33.2888C4.07237 33.2482 3.90784 33.0574 3.90784 32.8283V30.9092C3.90784 30.6504 4.11763 30.4406 4.37643 30.4406H7.83628V33.2969H6.35161V41.8999C6.35161 42.4171 5.93166 42.8371 5.41442 42.8371C4.89715 42.8371 4.4772 42.4171 4.4772 41.8999V33.2969ZM41.6333 33.2969H40.1487V30.4406H43.6085C43.8673 30.4406 44.0771 30.6504 44.0771 30.9092V32.8283C44.0771 33.0574 43.9126 33.2482 43.6952 33.2888C43.6671 33.2941 43.6381 33.2969 43.6085 33.2969H43.5077V41.8999C43.5077 42.4171 43.0878 42.8371 42.5706 42.8371C42.0533 42.8371 41.6333 42.4171 41.6333 41.8999V33.2969ZM7.6865 18.7533V3.46764C7.6865 3.20884 7.89631 2.99902 8.15509 2.99902H39.8299C40.0887 2.99902 40.2985 3.20884 40.2985 3.46764V18.7533H7.6865ZM41.1504 20.6277C41.2747 20.6277 41.3939 20.677 41.4818 20.7649C41.5696 20.8528 41.619 20.972 41.619 21.0963V23.0154C41.619 23.1396 41.5696 23.2588 41.4818 23.3467C41.3939 23.4346 41.2747 23.484 41.1504 23.484H6.83446C6.71019 23.484 6.591 23.4346 6.50312 23.3467C6.41524 23.2588 6.36587 23.1396 6.36587 23.0154V21.0963C6.36587 20.972 6.41524 20.8528 6.50312 20.7649C6.591 20.677 6.71019 20.6277 6.83446 20.6277H41.1504ZM21.8944 30.4406H26.0905V33.2969H21.8944V30.4406Z" fill="url(#paint0_linear_21_661)"/>
<defs>
<linearGradient id="paint0_linear_21_661" x1="23.9925" y1="2.99902" x2="23.9925" y2="44.9859" gradientUnits="userSpaceOnUse">
<stop stop-color="#099D76"/>
<stop offset="1" stop-color="#05F199"/>
</linearGradient>
</defs>
</svg>
