<svg width="48" height="48" viewBox="0 0 48 48" fill="none" xmlns="http://www.w3.org/2000/svg">
<path d="M45.1758 21.541C42.9278 13.1465 37.1328 7.64455 31.9883 9.02735C30.9321 9.31608 29.9673 9.87009 29.1855 10.6367C28.1116 11.7581 26.6485 12.4249 25.0976 12.5H22.9023C21.3522 12.4247 19.8898 11.7587 18.8154 10.6387C18.0339 9.87035 17.0681 9.31552 16.0107 9.02735C10.876 7.65235 5.07225 13.1465 2.82323 21.541C0.574206 29.9356 2.84277 37.5918 7.98827 38.9727C8.51506 39.1137 9.05816 39.1846 9.60351 39.1836C12.4541 39.1836 15.4355 37.2715 17.8379 33.8184C18.3337 33.1046 18.9945 32.5211 19.7642 32.1174C20.5339 31.7138 21.3897 31.502 22.2588 31.5H25.7412C26.6104 31.5016 27.4663 31.7132 28.2361 32.1168C29.0058 32.5205 29.6666 33.1043 30.1621 33.8184C33.0254 37.9317 36.7148 39.8633 40.0117 38.9727C45.1582 37.5918 47.4258 29.9356 45.1758 21.541Z" fill="url(#paint0_linear_12_492)"/>
<path d="M14 27.5C13.6022 27.4999 13.2207 27.3418 12.9395 27.0605C12.6582 26.7793 12.5001 26.3978 12.5 26V20C12.5 19.6022 12.658 19.2206 12.9393 18.9393C13.2206 18.658 13.6022 18.5 14 18.5C14.3978 18.5 14.7794 18.658 15.0607 18.9393C15.342 19.2206 15.5 19.6022 15.5 20V26C15.4999 26.3978 15.3418 26.7793 15.0605 27.0605C14.7793 27.3418 14.3978 27.4999 14 27.5Z" fill="white"/>
<path d="M17 24.5H11C10.6022 24.5 10.2206 24.342 9.93934 24.0607C9.65804 23.7794 9.5 23.3978 9.5 23C9.5 22.6022 9.65804 22.2206 9.93934 21.9393C10.2206 21.658 10.6022 21.5 11 21.5H17C17.3978 21.5 17.7794 21.658 18.0607 21.9393C18.342 22.2206 18.5 22.6022 18.5 23C18.5 23.3978 18.342 23.7794 18.0607 24.0607C17.7794 24.342 17.3978 24.5 17 24.5Z" fill="white"/>
<path d="M31.5 23C32.8807 23 34 21.8807 34 20.5C34 19.1193 32.8807 18 31.5 18C30.1193 18 29 19.1193 29 20.5C29 21.8807 30.1193 23 31.5 23Z" fill="white"/>
<path d="M36.5 28C37.8807 28 39 26.8807 39 25.5C39 24.1193 37.8807 23 36.5 23C35.1193 23 34 24.1193 34 25.5C34 26.8807 35.1193 28 36.5 28Z" fill="white"/>
<defs>
<linearGradient id="paint0_linear_12_492" x1="23.9999" y1="8.81482" x2="23.9999" y2="39.186" gradientUnits="userSpaceOnUse">
<stop stop-color="#04FF9F"/>
<stop offset="1" stop-color="#0A846C"/>
</linearGradient>
</defs>
</svg>
