<svg width="40" height="40" viewBox="0 0 40 40" fill="none" xmlns="http://www.w3.org/2000/svg">
<g clip-path="url(#clip0_12_227)">
<path d="M28.0392 24.0375L33.2892 21.1267C33.8817 20.7975 34.5034 19.9583 33.2892 19.2875L28.0359 16.385L24.275 20.2225L28.0392 24.0375Z" fill="#FFE300"/>
<path d="M24.275 20.2233L12.2467 32.4983C12.5184 32.5342 12.845 32.4608 13.2209 32.2525L28.0392 24.0375L24.275 20.2233Z" fill="#FF4E54"/>
<path d="M24.275 20.2225L28.035 16.385L13.2209 8.19832C12.8992 8.01999 12.5484 7.95832 12.2375 8.02832L24.275 20.2225Z" fill="#00F085"/>
<path d="M24.275 20.2233L12.2384 8.02832C11.7409 8.14082 11.3334 8.57665 11.3334 9.45332V31.0367C11.3334 31.8617 11.6542 32.4408 12.2467 32.4992L24.275 20.2233Z" fill="#00E0FF"/>
</g>
<defs>
<clipPath id="clip0_12_227">
<rect width="40" height="40" fill="white"/>
</clipPath>
</defs>
</svg>
