<svg width="32" height="32" viewBox="0 0 32 32" fill="none" xmlns="http://www.w3.org/2000/svg">
<path d="M28.2 3H4.19995C3.4043 3 2.64124 3.31607 2.07863 3.87868C1.51602 4.44129 1.19995 5.20435 1.19995 6C1.19995 6.79565 1.51602 7.55871 2.07863 8.12132C2.64124 8.68393 3.4043 9 4.19995 9H28.2C28.9956 9 29.7587 8.68393 30.3213 8.12132C30.8839 7.55871 31.2 6.79565 31.2 6C31.2 5.20435 30.8839 4.44129 30.3213 3.87868C29.7587 3.31607 28.9956 3 28.2 3Z" fill="#FAFAFA"/>
<path d="M28 13H4C3.20435 13 2.44129 13.3161 1.87868 13.8787C1.31607 14.4413 1 15.2044 1 16C1 16.7956 1.31607 17.5587 1.87868 18.1213C2.44129 18.6839 3.20435 19 4 19H28C28.7956 19 29.5587 18.6839 30.1213 18.1213C30.6839 17.5587 31 16.7956 31 16C31 15.2044 30.6839 14.4413 30.1213 13.8787C29.5587 13.3161 28.7956 13 28 13Z" fill="#FAFAFA"/>
<path d="M16 23H4C3.20435 23 2.44129 23.3161 1.87868 23.8787C1.31607 24.4413 1 25.2044 1 26C1 26.7956 1.31607 27.5587 1.87868 28.1213C2.44129 28.6839 3.20435 29 4 29H16C16.7956 29 17.5587 28.6839 18.1213 28.1213C18.6839 27.5587 19 26.7956 19 26C19 25.2044 18.6839 24.4413 18.1213 23.8787C17.5587 23.3161 16.7956 23 16 23Z" fill="#FAFAFA"/>
</svg>
