<svg width="28" height="28" viewBox="0 0 28 28" fill="none" xmlns="http://www.w3.org/2000/svg">
<path d="M22.1666 12.8334H15.1666V5.83341C15.1666 5.524 15.0437 5.22725 14.8249 5.00846C14.6061 4.78966 14.3094 4.66675 14 4.66675C13.6905 4.66675 13.3938 4.78966 13.175 5.00846C12.9562 5.22725 12.8333 5.524 12.8333 5.83341V12.8334H5.83329C5.52387 12.8334 5.22713 12.9563 5.00833 13.1751C4.78954 13.3939 4.66663 13.6907 4.66663 14.0001C4.66663 14.3095 4.78954 14.6062 5.00833 14.825C5.22713 15.0438 5.52387 15.1667 5.83329 15.1667H12.8333V22.1667C12.8333 22.4762 12.9562 22.7729 13.175 22.9917C13.3938 23.2105 13.6905 23.3334 14 23.3334C14.3094 23.3334 14.6061 23.2105 14.8249 22.9917C15.0437 22.7729 15.1666 22.4762 15.1666 22.1667V15.1667H22.1666C22.476 15.1667 22.7728 15.0438 22.9916 14.825C23.2104 14.6062 23.3333 14.3095 23.3333 14.0001C23.3333 13.6907 23.2104 13.3939 22.9916 13.1751C22.7728 12.9563 22.476 12.8334 22.1666 12.8334Z" fill="#16C481"/>
</svg>
